<svg width="100%" height="100%" viewBox="0 0 332 132" fill="none" preserveAspectRatio="xMaxYMax meet" xmlns="http://www.w3.org/2000/svg"><text x="12" y="-8" font-size="12" text-anchor="middle" fill="rgba(0,0,0,0.4)">Feb</text><text x="92" y="-8" font-size="12" text-anchor="middle" fill="rgba(0,0,0,0.4)">Mar</text><text x="172" y="-8" font-size="12" text-anchor="middle" fill="rgba(0,0,0,0.4)">Apr</text><text x="272" y="-8" font-size="12" text-anchor="middle" fill="rgba(0,0,0,0.4)">May</text><rect x="0" y="0" width="12" height="12" rx="2.5" fill="#40c463"></rect><rect x="0.5" y="0.5" width="11" height="11" rx="2" stroke-width="1" stroke="rgba(0,0,0,0.04)"></rect><rect x="0" y="20" width="12" height="12" rx="2.5" fill="#ebedf0"></rect><rect x="0.5" y="20.5" width="11" height="11" rx="2" stroke-width="1" stroke="rgba(0,0,0,0.04)"></rect><rect x="0" y="40" width="12" height="12" rx="2.5" fill="#ebedf0"></rect><rect x="0.5" y="40.5" width="11" height="11" rx="2" stroke-width="1" stroke="rgba(0,0,0,0.04)"></rect><rect x="0" y="60" width="12" height="12" rx="2.5" fill="#9be9a8"></rect><rect x="0.5" y="60.5" width="11" height="11" rx="2" stroke-width="1" stroke="rgba(0,0,0,0.04)"></rect><rect x="0" y="80" width="12" height="12" rx="2.5" fill="#30a14e"></rect><rect x="0.5" y="80.5" width="11" height="11" rx="2" stroke-width="1" stroke="rgba(0,0,0,0.04)"></rect><rect x="0" y="100" width="12" height="12" rx="2.5" fill="#40c463"></rect><rect x="0.5" y="100.5" width="11" height="11" rx="2" stroke-width="1" stroke="rgba(0,0,0,0.04)"></rect><rect x="0" y="120" width="12" height="12" rx="2.5" fill="#ebedf0"></rect><rect x="0.5" y="120.5" width="11" height="11" rx="2" stroke-width="1" stroke="rgba(0,0,0,0.04)"></rect><rect x="20" y="0" width="12" height="12" rx="2.5" fill="#ebedf0"></rect><rect x="20.5" y="0.5" width="11" height="11" rx="2" stroke-width="1" stroke="rgba(0,0,0,0.04)"></rect><rect x="20" y="20" width="12" height="12" rx="2.5" fill="#ebedf0"></rect><rect x="20.5" y="20.5" width="11" height="11" rx="2" stroke-width="1" stroke="rgba(0,0,0,0.04)"></rect><rect x="20" y="40" width="12" height="12" rx="2.5" fill="#ebedf0"></rect><rect x="20.5" y="40.5" width="11" height="11" rx="2" stroke-width="1" stroke="rgba(0,0,0,0.04)"></rect><rect x="20" y="60" width="12" height="12" rx="2.5" fill="#ebedf0"></rect><rect x="20.5" y="60.5" width="11" height="11" rx="2" stroke-width="1" stroke="rgba(0,0,0,0.04)"></rect><rect x="20" y="80" width="12" height="12" rx="2.5" fill="#ebedf0"></rect><rect x="20.5" y="80.5" width="11" height="11" rx="2" stroke-width="1" stroke="rgba(0,0,0,0.04)"></rect><rect x="20" y="100" width="12" height="12" rx="2.5" fill="#ebedf0"></rect><rect x="20.5" y="100.5" width="11" height="11" rx="2" stroke-width="1" stroke="rgba(0,0,0,0.04)"></rect><rect x="20" y="120" width="12" height="12" rx="2.5" fill="#ebedf0"></rect><rect x="20.5" y="120.5" width="11" height="11" rx="2" stroke-width="1" stroke="rgba(0,0,0,0.04)"></rect><rect x="40" y="0" width="12" height="12" rx="2.5" fill="#ebedf0"></rect><rect x="40.5" y="0.5" width="11" height="11" rx="2" stroke-width="1" stroke="rgba(0,0,0,0.04)"></rect><rect x="40" y="20" width="12" height="12" rx="2.5" fill="#ebedf0"></rect><rect x="40.5" y="20.5" width="11" height="11" rx="2" stroke-width="1" stroke="rgba(0,0,0,0.04)"></rect><rect x="40" y="40" width="12" height="12" rx="2.5" fill="#ebedf0"></rect><rect x="40.5" y="40.5" width="11" height="11" rx="2" stroke-width="1" stroke="rgba(0,0,0,0.04)"></rect><rect x="40" y="60" width="12" height="12" rx="2.5" fill="#ebedf0"></rect><rect x="40.5" y="60.5" width="11" height="11" rx="2" stroke-width="1" stroke="rgba(0,0,0,0.04)"></rect><rect x="40" y="80" width="12" height="12" rx="2.5" fill="#ebedf0"></rect><rect x="40.5" y="80.5" width="11" height="11" rx="2" stroke-width="1" stroke="rgba(0,0,0,0.04)"></rect><rect x="40" y="100" width="12" height="12" rx="2.5" fill="#ebedf0"></rect><rect x="40.5" y="100.5" width="11" height="11" rx="2" stroke-width="1" stroke="rgba(0,0,0,0.04)"></rect><rect x="40" y="120" width="12" height="12" rx="2.5" fill="#ebedf0"></rect><rect x="40.5" y="120.5" width="11" height="11" rx="2" stroke-width="1" stroke="rgba(0,0,0,0.04)"></rect><rect x="60" y="0" width="12" height="12" rx="2.5" fill="#ebedf0"></rect><rect x="60.5" y="0.5" width="11" height="11" rx="2" stroke-width="1" stroke="rgba(0,0,0,0.04)"></rect><rect x="60" y="20" width="12" height="12" rx="2.5" fill="#40c463"></rect><rect x="60.5" y="20.5" width="11" height="11" rx="2" stroke-width="1" stroke="rgba(0,0,0,0.04)"></rect><rect x="60" y="40" width="12" height="12" rx="2.5" fill="#40c463"></rect><rect x="60.5" y="40.5" width="11" height="11" rx="2" stroke-width="1" stroke="rgba(0,0,0,0.04)"></rect><rect x="60" y="60" width="12" height="12" rx="2.5" fill="#ebedf0"></rect><rect x="60.5" y="60.5" width="11" height="11" rx="2" stroke-width="1" stroke="rgba(0,0,0,0.04)"></rect><rect x="60" y="80" width="12" height="12" rx="2.5" fill="#ebedf0"></rect><rect x="60.5" y="80.5" width="11" height="11" rx="2" stroke-width="1" stroke="rgba(0,0,0,0.04)"></rect><rect x="60" y="100" width="12" height="12" rx="2.5" fill="#9be9a8"></rect><rect x="60.5" y="100.5" width="11" height="11" rx="2" stroke-width="1" stroke="rgba(0,0,0,0.04)"></rect><rect x="60" y="120" width="12" height="12" rx="2.5" fill="#ebedf0"></rect><rect x="60.5" y="120.5" width="11" height="11" rx="2" stroke-width="1" stroke="rgba(0,0,0,0.04)"></rect><rect x="80" y="0" width="12" height="12" rx="2.5" fill="#ebedf0"></rect><rect x="80.5" y="0.5" width="11" height="11" rx="2" stroke-width="1" stroke="rgba(0,0,0,0.04)"></rect><rect x="80" y="20" width="12" height="12" rx="2.5" fill="#9be9a8"></rect><rect x="80.5" y="20.5" width="11" height="11" rx="2" stroke-width="1" stroke="rgba(0,0,0,0.04)"></rect><rect x="80" y="40" width="12" height="12" rx="2.5" fill="#9be9a8"></rect><rect x="80.5" y="40.5" width="11" height="11" rx="2" stroke-width="1" stroke="rgba(0,0,0,0.04)"></rect><rect x="80" y="60" width="12" height="12" rx="2.5" fill="#ebedf0"></rect><rect x="80.5" y="60.5" width="11" height="11" rx="2" stroke-width="1" stroke="rgba(0,0,0,0.04)"></rect><rect x="80" y="80" width="12" height="12" rx="2.5" fill="#ebedf0"></rect><rect x="80.5" y="80.5" width="11" height="11" rx="2" stroke-width="1" stroke="rgba(0,0,0,0.04)"></rect><rect x="80" y="100" width="12" height="12" rx="2.5" fill="#ebedf0"></rect><rect x="80.5" y="100.5" width="11" height="11" rx="2" stroke-width="1" stroke="rgba(0,0,0,0.04)"></rect><rect x="80" y="120" width="12" height="12" rx="2.5" fill="#ebedf0"></rect><rect x="80.5" y="120.5" width="11" height="11" rx="2" stroke-width="1" stroke="rgba(0,0,0,0.04)"></rect><rect x="100" y="0" width="12" height="12" rx="2.5" fill="#ebedf0"></rect><rect x="100.5" y="0.5" width="11" height="11" rx="2" stroke-width="1" stroke="rgba(0,0,0,0.04)"></rect><rect x="100" y="20" width="12" height="12" rx="2.5" fill="#ebedf0"></rect><rect x="100.5" y="20.5" width="11" height="11" rx="2" stroke-width="1" stroke="rgba(0,0,0,0.04)"></rect><rect x="100" y="40" width="12" height="12" rx="2.5" fill="#ebedf0"></rect><rect x="100.5" y="40.5" width="11" height="11" rx="2" stroke-width="1" stroke="rgba(0,0,0,0.04)"></rect><rect x="100" y="60" width="12" height="12" rx="2.5" fill="#9be9a8"></rect><rect x="100.5" y="60.5" width="11" height="11" rx="2" stroke-width="1" stroke="rgba(0,0,0,0.04)"></rect><rect x="100" y="80" width="12" height="12" rx="2.5" fill="#ebedf0"></rect><rect x="100.5" y="80.5" width="11" height="11" rx="2" stroke-width="1" stroke="rgba(0,0,0,0.04)"></rect><rect x="100" y="100" width="12" height="12" rx="2.5" fill="#ebedf0"></rect><rect x="100.5" y="100.5" width="11" height="11" rx="2" stroke-width="1" stroke="rgba(0,0,0,0.04)"></rect><rect x="100" y="120" width="12" height="12" rx="2.5" fill="#ebedf0"></rect><rect x="100.5" y="120.5" width="11" height="11" rx="2" stroke-width="1" stroke="rgba(0,0,0,0.04)"></rect><rect x="120" y="0" width="12" height="12" rx="2.5" fill="#ebedf0"></rect><rect x="120.5" y="0.5" width="11" height="11" rx="2" stroke-width="1" stroke="rgba(0,0,0,0.04)"></rect><rect x="120" y="20" width="12" height="12" rx="2.5" fill="#ebedf0"></rect><rect x="120.5" y="20.5" width="11" height="11" rx="2" stroke-width="1" stroke="rgba(0,0,0,0.04)"></rect><rect x="120" y="40" width="12" height="12" rx="2.5" fill="#ebedf0"></rect><rect x="120.5" y="40.5" width="11" height="11" rx="2" stroke-width="1" stroke="rgba(0,0,0,0.04)"></rect><rect x="120" y="60" width="12" height="12" rx="2.5" fill="#ebedf0"></rect><rect x="120.5" y="60.5" width="11" height="11" rx="2" stroke-width="1" stroke="rgba(0,0,0,0.04)"></rect><rect x="120" y="80" width="12" height="12" rx="2.5" fill="#9be9a8"></rect><rect x="120.5" y="80.5" width="11" height="11" rx="2" stroke-width="1" stroke="rgba(0,0,0,0.04)"></rect><rect x="120" y="100" width="12" height="12" rx="2.5" fill="#ebedf0"></rect><rect x="120.5" y="100.5" width="11" height="11" rx="2" stroke-width="1" stroke="rgba(0,0,0,0.04)"></rect><rect x="120" y="120" width="12" height="12" rx="2.5" fill="#40c463"></rect><rect x="120.5" y="120.5" width="11" height="11" rx="2" stroke-width="1" stroke="rgba(0,0,0,0.04)"></rect><rect x="140" y="0" width="12" height="12" rx="2.5" fill="#ebedf0"></rect><rect x="140.5" y="0.5" width="11" height="11" rx="2" stroke-width="1" stroke="rgba(0,0,0,0.04)"></rect><rect x="140" y="20" width="12" height="12" rx="2.5" fill="#30a14e"></rect><rect x="140.5" y="20.5" width="11" height="11" rx="2" stroke-width="1" stroke="rgba(0,0,0,0.04)"></rect><rect x="140" y="40" width="12" height="12" rx="2.5" fill="#ebedf0"></rect><rect x="140.5" y="40.5" width="11" height="11" rx="2" stroke-width="1" stroke="rgba(0,0,0,0.04)"></rect><rect x="140" y="60" width="12" height="12" rx="2.5" fill="#216e39"></rect><rect x="140.5" y="60.5" width="11" height="11" rx="2" stroke-width="1" stroke="rgba(0,0,0,0.04)"></rect><rect x="140" y="80" width="12" height="12" rx="2.5" fill="#40c463"></rect><rect x="140.5" y="80.5" width="11" height="11" rx="2" stroke-width="1" stroke="rgba(0,0,0,0.04)"></rect><rect x="140" y="100" width="12" height="12" rx="2.5" fill="#9be9a8"></rect><rect x="140.5" y="100.5" width="11" height="11" rx="2" stroke-width="1" stroke="rgba(0,0,0,0.04)"></rect><rect x="140" y="120" width="12" height="12" rx="2.5" fill="#ebedf0"></rect><rect x="140.5" y="120.5" width="11" height="11" rx="2" stroke-width="1" stroke="rgba(0,0,0,0.04)"></rect><rect x="160" y="0" width="12" height="12" rx="2.5" fill="#ebedf0"></rect><rect x="160.5" y="0.5" width="11" height="11" rx="2" stroke-width="1" stroke="rgba(0,0,0,0.04)"></rect><rect x="160" y="20" width="12" height="12" rx="2.5" fill="#ebedf0"></rect><rect x="160.5" y="20.5" width="11" height="11" rx="2" stroke-width="1" stroke="rgba(0,0,0,0.04)"></rect><rect x="160" y="40" width="12" height="12" rx="2.5" fill="#9be9a8"></rect><rect x="160.5" y="40.5" width="11" height="11" rx="2" stroke-width="1" stroke="rgba(0,0,0,0.04)"></rect><rect x="160" y="60" width="12" height="12" rx="2.5" fill="#ebedf0"></rect><rect x="160.5" y="60.5" width="11" height="11" rx="2" stroke-width="1" stroke="rgba(0,0,0,0.04)"></rect><rect x="160" y="80" width="12" height="12" rx="2.5" fill="#ebedf0"></rect><rect x="160.5" y="80.5" width="11" height="11" rx="2" stroke-width="1" stroke="rgba(0,0,0,0.04)"></rect><rect x="160" y="100" width="12" height="12" rx="2.5" fill="#ebedf0"></rect><rect x="160.5" y="100.5" width="11" height="11" rx="2" stroke-width="1" stroke="rgba(0,0,0,0.04)"></rect><rect x="160" y="120" width="12" height="12" rx="2.5" fill="#ebedf0"></rect><rect x="160.5" y="120.5" width="11" height="11" rx="2" stroke-width="1" stroke="rgba(0,0,0,0.04)"></rect><rect x="180" y="0" width="12" height="12" rx="2.5" fill="#40c463"></rect><rect x="180.5" y="0.5" width="11" height="11" rx="2" stroke-width="1" stroke="rgba(0,0,0,0.04)"></rect><rect x="180" y="20" width="12" height="12" rx="2.5" fill="#ebedf0"></rect><rect x="180.5" y="20.5" width="11" height="11" rx="2" stroke-width="1" stroke="rgba(0,0,0,0.04)"></rect><rect x="180" y="40" width="12" height="12" rx="2.5" fill="#40c463"></rect><rect x="180.5" y="40.5" width="11" height="11" rx="2" stroke-width="1" stroke="rgba(0,0,0,0.04)"></rect><rect x="180" y="60" width="12" height="12" rx="2.5" fill="#ebedf0"></rect><rect x="180.5" y="60.5" width="11" height="11" rx="2" stroke-width="1" stroke="rgba(0,0,0,0.04)"></rect><rect x="180" y="80" width="12" height="12" rx="2.5" fill="#ebedf0"></rect><rect x="180.5" y="80.5" width="11" height="11" rx="2" stroke-width="1" stroke="rgba(0,0,0,0.04)"></rect><rect x="180" y="100" width="12" height="12" rx="2.5" fill="#ebedf0"></rect><rect x="180.5" y="100.5" width="11" height="11" rx="2" stroke-width="1" stroke="rgba(0,0,0,0.04)"></rect><rect x="180" y="120" width="12" height="12" rx="2.5" fill="#ebedf0"></rect><rect x="180.5" y="120.5" width="11" height="11" rx="2" stroke-width="1" stroke="rgba(0,0,0,0.04)"></rect><rect x="200" y="0" width="12" height="12" rx="2.5" fill="#ebedf0"></rect><rect x="200.5" y="0.5" width="11" height="11" rx="2" stroke-width="1" stroke="rgba(0,0,0,0.04)"></rect><rect x="200" y="20" width="12" height="12" rx="2.5" fill="#ebedf0"></rect><rect x="200.5" y="20.5" width="11" height="11" rx="2" stroke-width="1" stroke="rgba(0,0,0,0.04)"></rect><rect x="200" y="40" width="12" height="12" rx="2.5" fill="#ebedf0"></rect><rect x="200.5" y="40.5" width="11" height="11" rx="2" stroke-width="1" stroke="rgba(0,0,0,0.04)"></rect><rect x="200" y="60" width="12" height="12" rx="2.5" fill="#ebedf0"></rect><rect x="200.5" y="60.5" width="11" height="11" rx="2" stroke-width="1" stroke="rgba(0,0,0,0.04)"></rect><rect x="200" y="80" width="12" height="12" rx="2.5" fill="#ebedf0"></rect><rect x="200.5" y="80.5" width="11" height="11" rx="2" stroke-width="1" stroke="rgba(0,0,0,0.04)"></rect><rect x="200" y="100" width="12" height="12" rx="2.5" fill="#ebedf0"></rect><rect x="200.5" y="100.5" width="11" height="11" rx="2" stroke-width="1" stroke="rgba(0,0,0,0.04)"></rect><rect x="200" y="120" width="12" height="12" rx="2.5" fill="#9be9a8"></rect><rect x="200.5" y="120.5" width="11" height="11" rx="2" stroke-width="1" stroke="rgba(0,0,0,0.04)"></rect><rect x="220" y="0" width="12" height="12" rx="2.5" fill="#30a14e"></rect><rect x="220.5" y="0.5" width="11" height="11" rx="2" stroke-width="1" stroke="rgba(0,0,0,0.04)"></rect><rect x="220" y="20" width="12" height="12" rx="2.5" fill="#ebedf0"></rect><rect x="220.5" y="20.5" width="11" height="11" rx="2" stroke-width="1" stroke="rgba(0,0,0,0.04)"></rect><rect x="220" y="40" width="12" height="12" rx="2.5" fill="#ebedf0"></rect><rect x="220.5" y="40.5" width="11" height="11" rx="2" stroke-width="1" stroke="rgba(0,0,0,0.04)"></rect><rect x="220" y="60" width="12" height="12" rx="2.5" fill="#40c463"></rect><rect x="220.5" y="60.5" width="11" height="11" rx="2" stroke-width="1" stroke="rgba(0,0,0,0.04)"></rect><rect x="220" y="80" width="12" height="12" rx="2.5" fill="#ebedf0"></rect><rect x="220.5" y="80.5" width="11" height="11" rx="2" stroke-width="1" stroke="rgba(0,0,0,0.04)"></rect><rect x="220" y="100" width="12" height="12" rx="2.5" fill="#ebedf0"></rect><rect x="220.5" y="100.5" width="11" height="11" rx="2" stroke-width="1" stroke="rgba(0,0,0,0.04)"></rect><rect x="220" y="120" width="12" height="12" rx="2.5" fill="#40c463"></rect><rect x="220.5" y="120.5" width="11" height="11" rx="2" stroke-width="1" stroke="rgba(0,0,0,0.04)"></rect><rect x="240" y="0" width="12" height="12" rx="2.5" fill="#ebedf0"></rect><rect x="240.5" y="0.5" width="11" height="11" rx="2" stroke-width="1" stroke="rgba(0,0,0,0.04)"></rect><rect x="240" y="20" width="12" height="12" rx="2.5" fill="#ebedf0"></rect><rect x="240.5" y="20.5" width="11" height="11" rx="2" stroke-width="1" stroke="rgba(0,0,0,0.04)"></rect><rect x="240" y="40" width="12" height="12" rx="2.5" fill="#ebedf0"></rect><rect x="240.5" y="40.5" width="11" height="11" rx="2" stroke-width="1" stroke="rgba(0,0,0,0.04)"></rect><rect x="240" y="60" width="12" height="12" rx="2.5" fill="#ebedf0"></rect><rect x="240.5" y="60.5" width="11" height="11" rx="2" stroke-width="1" stroke="rgba(0,0,0,0.04)"></rect><rect x="240" y="80" width="12" height="12" rx="2.5" fill="#ebedf0"></rect><rect x="240.5" y="80.5" width="11" height="11" rx="2" stroke-width="1" stroke="rgba(0,0,0,0.04)"></rect><rect x="240" y="100" width="12" height="12" rx="2.5" fill="#ebedf0"></rect><rect x="240.5" y="100.5" width="11" height="11" rx="2" stroke-width="1" stroke="rgba(0,0,0,0.04)"></rect><rect x="240" y="120" width="12" height="12" rx="2.5" fill="#ebedf0"></rect><rect x="240.5" y="120.5" width="11" height="11" rx="2" stroke-width="1" stroke="rgba(0,0,0,0.04)"></rect><rect x="260" y="0" width="12" height="12" rx="2.5" fill="#9be9a8"></rect><rect x="260.5" y="0.5" width="11" height="11" rx="2" stroke-width="1" stroke="rgba(0,0,0,0.04)"></rect><rect x="260" y="20" width="12" height="12" rx="2.5" fill="#40c463"></rect><rect x="260.5" y="20.5" width="11" height="11" rx="2" stroke-width="1" stroke="rgba(0,0,0,0.04)"></rect><rect x="260" y="40" width="12" height="12" rx="2.5" fill="#ebedf0"></rect><rect x="260.5" y="40.5" width="11" height="11" rx="2" stroke-width="1" stroke="rgba(0,0,0,0.04)"></rect><rect x="260" y="60" width="12" height="12" rx="2.5" fill="#ebedf0"></rect><rect x="260.5" y="60.5" width="11" height="11" rx="2" stroke-width="1" stroke="rgba(0,0,0,0.04)"></rect><rect x="260" y="80" width="12" height="12" rx="2.5" fill="#40c463"></rect><rect x="260.5" y="80.5" width="11" height="11" rx="2" stroke-width="1" stroke="rgba(0,0,0,0.04)"></rect><rect x="260" y="100" width="12" height="12" rx="2.5" fill="#216e39"></rect><rect x="260.5" y="100.5" width="11" height="11" rx="2" stroke-width="1" stroke="rgba(0,0,0,0.04)"></rect><rect x="260" y="120" width="12" height="12" rx="2.5" fill="#ebedf0"></rect><rect x="260.5" y="120.5" width="11" height="11" rx="2" stroke-width="1" stroke="rgba(0,0,0,0.04)"></rect><rect x="280" y="0" width="12" height="12" rx="2.5" fill="#216e39"></rect><rect x="280.5" y="0.5" width="11" height="11" rx="2" stroke-width="1" stroke="rgba(0,0,0,0.04)"></rect><rect x="280" y="20" width="12" height="12" rx="2.5" fill="#ebedf0"></rect><rect x="280.5" y="20.5" width="11" height="11" rx="2" stroke-width="1" stroke="rgba(0,0,0,0.04)"></rect><rect x="280" y="40" width="12" height="12" rx="2.5" fill="#40c463"></rect><rect x="280.5" y="40.5" width="11" height="11" rx="2" stroke-width="1" stroke="rgba(0,0,0,0.04)"></rect><rect x="280" y="60" width="12" height="12" rx="2.5" fill="#216e39"></rect><rect x="280.5" y="60.5" width="11" height="11" rx="2" stroke-width="1" stroke="rgba(0,0,0,0.04)"></rect><rect x="280" y="80" width="12" height="12" rx="2.5" fill="#9be9a8"></rect><rect x="280.5" y="80.5" width="11" height="11" rx="2" stroke-width="1" stroke="rgba(0,0,0,0.04)"></rect><rect x="280" y="100" width="12" height="12" rx="2.5" fill="#9be9a8"></rect><rect x="280.5" y="100.5" width="11" height="11" rx="2" stroke-width="1" stroke="rgba(0,0,0,0.04)"></rect><rect x="280" y="120" width="12" height="12" rx="2.5" fill="#ebedf0"></rect><rect x="280.5" y="120.5" width="11" height="11" rx="2" stroke-width="1" stroke="rgba(0,0,0,0.04)"></rect><rect x="300" y="0" width="12" height="12" rx="2.5" fill="#40c463"></rect><rect x="300.5" y="0.5" width="11" height="11" rx="2" stroke-width="1" stroke="rgba(0,0,0,0.04)"></rect><rect x="300" y="20" width="12" height="12" rx="2.5" fill="#40c463"></rect><rect x="300.5" y="20.5" width="11" height="11" rx="2" stroke-width="1" stroke="rgba(0,0,0,0.04)"></rect><rect x="300" y="40" width="12" height="12" rx="2.5" fill="#30a14e"></rect><rect x="300.5" y="40.5" width="11" height="11" rx="2" stroke-width="1" stroke="rgba(0,0,0,0.04)"></rect><rect x="300" y="60" width="12" height="12" rx="2.5" fill="#ebedf0"></rect><rect x="300.5" y="60.5" width="11" height="11" rx="2" stroke-width="1" stroke="rgba(0,0,0,0.04)"></rect><rect x="300" y="80" width="12" height="12" rx="2.5" fill="#ebedf0"></rect><rect x="300.5" y="80.5" width="11" height="11" rx="2" stroke-width="1" stroke="rgba(0,0,0,0.04)"></rect><rect x="300" y="100" width="12" height="12" rx="2.5" fill="#ebedf0"></rect><rect x="300.5" y="100.5" width="11" height="11" rx="2" stroke-width="1" stroke="rgba(0,0,0,0.04)"></rect><rect x="300" y="120" width="12" height="12" rx="2.5" fill="#ebedf0"></rect><rect x="300.5" y="120.5" width="11" height="11" rx="2" stroke-width="1" stroke="rgba(0,0,0,0.04)"></rect><rect x="320" y="0" width="12" height="12" rx="2.5" fill="#ebedf0"></rect><rect x="320.5" y="0.5" width="11" height="11" rx="2" stroke-width="1" stroke="rgba(0,0,0,0.04)"></rect><rect x="320" y="20" width="12" height="12" rx="2.5" fill="#ebedf0"></rect><rect x="320.5" y="20.5" width="11" height="11" rx="2" stroke-width="1" stroke="rgba(0,0,0,0.04)"></rect></svg>